<?xml version="1.0" encoding="utf-8"?>
<!-- Generator: Adobe Illustrator 27.5.0, SVG Export Plug-In . SVG Version: 6.00 Build 0)  -->
<svg version="1.1" xmlns="http://www.w3.org/2000/svg" xmlns:xlink="http://www.w3.org/1999/xlink" x="0px" y="0px"
	 viewBox="0 0 1200 500" style="enable-background:new 0 0 1200 500;" xml:space="preserve">
<g id="BACKGROUND">
	<rect style="fill:#1C253A;" width="1200" height="500"/>
</g>
<g id="OBJECTS">
	<g>
		<defs>
			<rect id="SVGID_1_" width="1200" height="500"/>
		</defs>
		<clipPath id="SVGID_00000053547243228066503200000014245447354977002173_">
			<use xlink:href="#SVGID_1_"  style="overflow:visible;"/>
		</clipPath>
		<g style="clip-path:url(#SVGID_00000053547243228066503200000014245447354977002173_);">
			
				<linearGradient id="SVGID_00000131339209915398298870000012589160320513808826_" gradientUnits="userSpaceOnUse" x1="64.8243" y1="-116.0441" x2="196.928" y2="16.0596">
				<stop  offset="0.307" style="stop-color:#344967"/>
				<stop  offset="1" style="stop-color:#27374E"/>
			</linearGradient>
			<polygon style="opacity:0.3;fill:url(#SVGID_00000131339209915398298870000012589160320513808826_);" points="227.583,-85.389 
				130.876,82.112 34.169,-85.389 			"/>
			
				<linearGradient id="SVGID_00000163073247188374606110000012396366195479367844_" gradientUnits="userSpaceOnUse" x1="290.9746" y1="3157.2588" x2="396.2296" y2="3262.5137" gradientTransform="matrix(-1 0 0 -1 322.8622 3492.8101)">
				<stop  offset="0.307" style="stop-color:#344967"/>
				<stop  offset="1" style="stop-color:#27374E"/>
			</linearGradient>
			<polygon style="opacity:0.3;fill:url(#SVGID_00000163073247188374606110000012396366195479367844_);" points="-97.792,311.127 
				-20.74,177.669 56.312,311.127 			"/>
			<g style="opacity:0.3;">
				
					<linearGradient id="SVGID_00000057111900470269348320000003871325197351270058_" gradientUnits="userSpaceOnUse" x1="206.1635" y1="2620.5215" x2="287.2581" y2="2701.616" gradientTransform="matrix(1 0 0 -1 -35.8025 2757.7241)">
					<stop  offset="0.307" style="stop-color:#344967"/>
					<stop  offset="1" style="stop-color:#27374E"/>
				</linearGradient>
				<polygon style="fill:url(#SVGID_00000057111900470269348320000003871325197351270058_);" points="270.274,118.385 
					210.908,15.561 151.543,118.385 				"/>
			</g>
			
				<linearGradient id="SVGID_00000007424356539072675740000005244104421800257162_" gradientUnits="userSpaceOnUse" x1="226.6075" y1="15.9936" x2="358.7112" y2="148.0973">
				<stop  offset="0.307" style="stop-color:#344967"/>
				<stop  offset="1" style="stop-color:#27374E"/>
			</linearGradient>
			<polygon style="opacity:0.3;fill:url(#SVGID_00000007424356539072675740000005244104421800257162_);" points="389.366,46.648 
				292.659,214.149 195.953,46.648 			"/>
			<g>
				
					<linearGradient id="SVGID_00000036950588478828525000000012720106813737202835_" gradientUnits="userSpaceOnUse" x1="694.8564" y1="2844.8218" x2="922.1066" y2="3072.072" gradientTransform="matrix(-1 0 0 -1 1200 2930.8975)">
					<stop  offset="0" style="stop-color:#27374E"/>
					<stop  offset="0.693" style="stop-color:#344967"/>
				</linearGradient>
				
					<polygon style="fill:none;stroke:url(#SVGID_00000036950588478828525000000012720106813737202835_);stroke-width:2;stroke-miterlimit:10;" points="
					226.892,32.342 391.518,-252.8 556.145,32.342 				"/>
			</g>
			<g>
				
					<linearGradient id="SVGID_00000096778224246119840110000013765330264540978355_" gradientUnits="userSpaceOnUse" x1="204.9259" y1="-38.5933" x2="364.1772" y2="120.6581">
					<stop  offset="0.307" style="stop-color:#344967"/>
					<stop  offset="1" style="stop-color:#27374E"/>
				</linearGradient>
				<polygon style="fill:url(#SVGID_00000096778224246119840110000013765330264540978355_);" points="401.132,-1.639 
					284.552,200.284 167.971,-1.639 				"/>
				<polygon style="opacity:0.15;fill:#FFFFFF;" points="284.552,-1.639 284.552,200.284 167.971,-1.639 				"/>
			</g>
			<g>
				<polygon style="fill:none;stroke:#F4C700;stroke-width:2;stroke-miterlimit:10;" points="492.043,-124.612 368.701,89.023 
					245.358,-124.612 				"/>
			</g>
			<g style="opacity:0.7;">
				<polygon style="fill:#344967;" points="65.902,151.576 64.011,151.576 35.832,200.383 36.778,202.02 				"/>
				<polygon style="fill:#344967;" points="41.536,151.576 39.645,151.576 23.649,179.282 24.595,180.919 				"/>
				<polygon style="fill:#344967;" points="57.78,151.576 55.889,151.576 31.771,193.349 32.717,194.987 				"/>
				<polygon style="fill:#344967;" points="7.654,151.576 8.351,152.785 9.049,151.576 				"/>
				<polygon style="fill:#344967;" points="17.171,151.576 15.28,151.576 11.467,158.181 12.412,159.818 				"/>
				<polygon style="fill:#344967;" points="74.023,151.576 72.132,151.576 39.893,207.416 40.838,209.054 				"/>
				<polygon style="fill:#344967;" points="25.292,151.576 23.402,151.576 15.528,165.214 16.473,166.852 				"/>
				<polygon style="fill:#344967;" points="33.414,151.576 31.523,151.576 19.588,172.248 20.534,173.886 				"/>
				<polygon style="fill:#344967;" points="49.658,151.576 47.767,151.576 27.71,186.315 28.656,187.953 				"/>
				<polygon style="fill:#344967;" points="138.998,151.576 137.107,151.576 72.38,263.686 73.326,265.324 				"/>
				<polygon style="fill:#344967;" points="130.876,151.576 128.985,151.576 68.319,256.652 69.265,258.29 				"/>
				<polygon style="fill:#344967;" points="145.229,151.576 76.441,270.72 77.387,272.357 147.12,151.576 				"/>
				<polygon style="fill:#344967;" points="122.754,151.576 120.863,151.576 64.258,249.619 65.204,251.256 				"/>
				<polygon style="fill:#344967;" points="82.145,151.576 80.254,151.576 43.954,214.45 44.899,216.088 				"/>
				<polygon style="fill:#344967;" points="114.632,151.576 112.742,151.576 60.197,242.585 61.143,244.222 				"/>
				<polygon style="fill:#344967;" points="98.389,151.576 96.498,151.576 52.076,228.518 53.021,230.155 				"/>
				<polygon style="fill:#344967;" points="90.267,151.576 88.376,151.576 48.015,221.484 48.96,223.121 				"/>
				<polygon style="fill:#344967;" points="106.511,151.576 104.62,151.576 56.137,235.551 57.082,237.189 				"/>
			</g>
			<g>
				<polygon style="fill:#344967;" points="467.256,45.611 468.805,45.611 491.881,5.643 491.107,4.302 				"/>
				<polygon style="fill:#344967;" points="487.21,45.611 488.758,45.611 501.857,22.923 501.083,21.582 				"/>
				<polygon style="fill:#344967;" points="473.908,45.611 475.456,45.611 495.206,11.403 494.432,10.062 				"/>
				<polygon style="fill:#344967;" points="514.957,45.611 514.385,44.622 513.814,45.611 				"/>
				<polygon style="fill:#344967;" points="507.163,45.611 508.711,45.611 511.834,40.203 511.06,38.862 				"/>
				<polygon style="fill:#344967;" points="460.605,45.611 462.154,45.611 488.555,-0.117 487.781,-1.458 				"/>
				<polygon style="fill:#344967;" points="500.512,45.611 502.06,45.611 508.509,34.443 507.734,33.102 				"/>
				<polygon style="fill:#344967;" points="493.861,45.611 495.409,45.611 505.183,28.683 504.409,27.342 				"/>
				<polygon style="fill:#344967;" points="480.559,45.611 482.107,45.611 498.532,17.163 497.758,15.822 				"/>
				<polygon style="fill:#344967;" points="407.396,45.611 408.945,45.611 461.951,-46.197 461.177,-47.538 				"/>
				<polygon style="fill:#344967;" points="414.048,45.611 415.596,45.611 465.276,-40.437 464.502,-41.778 				"/>
				<polygon style="fill:#344967;" points="402.294,45.611 458.625,-51.957 457.851,-53.299 400.745,45.611 				"/>
				<polygon style="fill:#344967;" points="420.699,45.611 422.247,45.611 468.602,-34.677 467.828,-36.018 				"/>
				<polygon style="fill:#344967;" points="453.954,45.611 455.503,45.611 485.23,-5.877 484.455,-7.218 				"/>
				<polygon style="fill:#344967;" points="427.35,45.611 428.898,45.611 471.927,-28.917 471.153,-30.258 				"/>
				<polygon style="fill:#344967;" points="440.652,45.611 442.201,45.611 478.579,-17.397 477.804,-18.738 				"/>
				<polygon style="fill:#344967;" points="447.303,45.611 448.852,45.611 481.904,-11.637 481.13,-12.978 				"/>
				<polygon style="fill:#344967;" points="434.001,45.611 435.549,45.611 475.253,-23.157 474.479,-24.498 				"/>
			</g>
			<g>
				
					<linearGradient id="SVGID_00000071519471423230466250000007687625915981073024_" gradientUnits="userSpaceOnUse" x1="340.4965" y1="-85.5297" x2="474.8459" y2="48.8197">
					<stop  offset="0.3005" style="stop-color:#FFB654"/>
					<stop  offset="1" style="stop-color:#E78400"/>
				</linearGradient>
				<polygon style="fill:url(#SVGID_00000071519471423230466250000007687625915981073024_);" points="506.022,17.644 
					407.671,-152.704 309.321,17.644 				"/>
				<polygon style="opacity:0.3;fill:#FFFFFF;" points="407.671,17.644 407.671,-152.704 309.321,17.644 				"/>
			</g>
			
				<linearGradient id="SVGID_00000088818276575258627450000017485864778821721519_" gradientUnits="userSpaceOnUse" x1="-33.4641" y1="-31.1028" x2="98.6395" y2="101.0009">
				<stop  offset="0.307" style="stop-color:#344967"/>
				<stop  offset="1" style="stop-color:#27374E"/>
			</linearGradient>
			<polygon style="fill:url(#SVGID_00000088818276575258627450000017485864778821721519_);" points="129.294,-0.448 32.588,167.053 
				-64.119,-0.448 			"/>
			<g>
				
					<linearGradient id="SVGID_00000007417410884257787820000015127850290049153672_" gradientUnits="userSpaceOnUse" x1="-36.2188" y1="269.39" x2="83.9024" y2="149.2687">
					<stop  offset="0" style="stop-color:#81B688"/>
					<stop  offset="0.858" style="stop-color:#5C8C77"/>
				</linearGradient>
				
					<polygon style="fill:none;stroke:url(#SVGID_00000007417410884257787820000015127850290049153672_);stroke-width:2;stroke-miterlimit:10;" points="
					-62.361,240.516 23.842,91.208 110.045,240.516 				"/>
			</g>
			<g>
				
					<linearGradient id="SVGID_00000088839468013700145070000009214403051555831171_" gradientUnits="userSpaceOnUse" x1="-87.3062" y1="-38.5933" x2="71.9451" y2="120.658">
					<stop  offset="0" style="stop-color:#81B688"/>
					<stop  offset="0.858" style="stop-color:#4F806B"/>
				</linearGradient>
				<polygon style="fill:url(#SVGID_00000088839468013700145070000009214403051555831171_);" points="108.899,-1.639 
					-7.681,200.284 -124.261,-1.639 				"/>
				<polygon style="opacity:0.3;fill:#FFFFFF;" points="-7.681,-1.639 -7.681,200.284 -124.261,-1.639 				"/>
			</g>
			<g>
				
					<linearGradient id="SVGID_00000065052027544293859860000004289552240115682182_" gradientUnits="userSpaceOnUse" x1="839.9888" y1="2731.1409" x2="1067.239" y2="2958.3909" gradientTransform="matrix(-1 0 0 -1 1200 2930.8975)">
					<stop  offset="0.307" style="stop-color:#344967"/>
					<stop  offset="1" style="stop-color:#27374E"/>
				</linearGradient>
				
					<polygon style="fill:none;stroke:url(#SVGID_00000065052027544293859860000004289552240115682182_);stroke-width:2;stroke-miterlimit:10;" points="
					81.759,146.023 246.386,-139.119 411.013,146.023 				"/>
			</g>
			<g>
				
					<linearGradient id="SVGID_00000039824377044797385930000017332328304789846145_" gradientUnits="userSpaceOnUse" x1="-123.238" y1="-66.6032" x2="109.3174" y2="165.9522">
					<stop  offset="0.307" style="stop-color:#344967"/>
					<stop  offset="1" style="stop-color:#27374E"/>
				</linearGradient>
				
					<polygon style="fill:none;stroke:url(#SVGID_00000039824377044797385930000017332328304789846145_);stroke-width:2;stroke-miterlimit:10;" points="
					161.55,-11.639 -6.96,280.23 -175.471,-11.639 				"/>
			</g>
			<g>
				
					<linearGradient id="SVGID_00000026870278047001464850000000638825180959040157_" gradientUnits="userSpaceOnUse" x1="111.2161" y1="27.7389" x2="250.0207" y2="166.5435">
					<stop  offset="0" style="stop-color:#81B688"/>
					<stop  offset="0.858" style="stop-color:#5C8C77"/>
				</linearGradient>
				
					<polygon style="fill:none;stroke:url(#SVGID_00000026870278047001464850000000638825180959040157_);stroke-width:2;stroke-miterlimit:10;" points="
					280.498,60.949 180.618,233.946 80.738,60.949 				"/>
			</g>
			<g>
				
					<linearGradient id="SVGID_00000029019658895713089790000017505414675284939910_" gradientUnits="userSpaceOnUse" x1="119.8641" y1="27.7389" x2="258.6687" y2="166.5435">
					<stop  offset="0" style="stop-color:#81B688"/>
					<stop  offset="0.858" style="stop-color:#5C8C77"/>
				</linearGradient>
				
					<polygon style="fill:none;stroke:url(#SVGID_00000029019658895713089790000017505414675284939910_);stroke-width:2;stroke-miterlimit:10;" points="
					289.146,60.949 189.266,233.946 89.386,60.949 				"/>
			</g>
			<g>
				
					<linearGradient id="SVGID_00000031190896248548819010000008828878718491234981_" gradientUnits="userSpaceOnUse" x1="213.6655" y1="2633.123" x2="294.7601" y2="2714.2175" gradientTransform="matrix(1 0 0 -1 -35.8025 2757.7241)">
					<stop  offset="0" style="stop-color:#81B688"/>
					<stop  offset="0.858" style="stop-color:#4F806B"/>
				</linearGradient>
				<polygon style="fill:url(#SVGID_00000031190896248548819010000008828878718491234981_);" points="277.776,105.783 218.41,2.959 
					159.045,105.783 				"/>
				<polygon style="opacity:0.3;fill:#FFFFFF;" points="218.41,105.783 218.41,2.959 159.045,105.783 				"/>
			</g>
			<g>
				
					<linearGradient id="SVGID_00000044167161860199362710000017086447716534409881_" gradientUnits="userSpaceOnUse" x1="218.2449" y1="94.9999" x2="269.4147" y2="146.1697">
					<stop  offset="0" style="stop-color:#FFCFCB"/>
					<stop  offset="1" style="stop-color:#D7926D"/>
				</linearGradient>
				<polygon style="fill:url(#SVGID_00000044167161860199362710000017086447716534409881_);" points="281.289,134.296 
					243.83,69.415 206.371,134.296 				"/>
				<polygon style="opacity:0.3;fill:#FFFFFF;" points="243.83,134.296 243.83,69.415 206.371,134.296 				"/>
			</g>
			<g>
				
					<linearGradient id="SVGID_00000066485754395021671290000011674283250055209915_" gradientUnits="userSpaceOnUse" x1="18.5729" y1="-80.1274" x2="189.4277" y2="90.7274">
					<stop  offset="0.3005" style="stop-color:#FFC475"/>
					<stop  offset="1" style="stop-color:#E78E00"/>
				</linearGradient>
				
					<polygon style="fill:none;stroke:url(#SVGID_00000066485754395021671290000011674283250055209915_);stroke-width:2;stroke-miterlimit:10;" points="
					227.343,-39.48 104,174.155 -19.342,-39.48 				"/>
			</g>
			<g>
				
					<linearGradient id="SVGID_00000133505186299430452640000005736448072270028469_" gradientUnits="userSpaceOnUse" x1="36.9925" y1="95.0273" x2="110.5141" y2="168.5489">
					<stop  offset="0.3005" style="stop-color:#FFB654"/>
					<stop  offset="1" style="stop-color:#E78400"/>
				</linearGradient>
				<polygon style="fill:url(#SVGID_00000133505186299430452640000005736448072270028469_);" points="127.575,112.088 
					73.753,205.31 19.932,112.088 				"/>
				<polygon style="opacity:0.3;fill:#FFFFFF;" points="73.753,112.088 73.753,205.31 19.932,112.088 				"/>
			</g>
			<g>
				
					<linearGradient id="SVGID_00000101800091858130138300000018275525022664566969_" gradientUnits="userSpaceOnUse" x1="28.0813" y1="165.6337" x2="61.7174" y2="199.2698">
					<stop  offset="0.3005" style="stop-color:#FFE375"/>
					<stop  offset="1" style="stop-color:#F4C700"/>
				</linearGradient>
				<polygon style="fill:url(#SVGID_00000101800091858130138300000018275525022664566969_);" points="69.523,173.439 
					44.899,216.088 20.276,173.439 				"/>
				<polygon style="opacity:0.3;fill:#FFFFFF;" points="44.899,173.439 44.899,216.088 20.276,173.439 				"/>
			</g>
			<g>
				
					<linearGradient id="SVGID_00000160150469095321051420000013178019100211500197_" gradientUnits="userSpaceOnUse" x1="255.5614" y1="11.9223" x2="277.7215" y2="34.0825">
					<stop  offset="0.3005" style="stop-color:#FFE375"/>
					<stop  offset="1" style="stop-color:#F4C700"/>
				</linearGradient>
				<polygon style="fill:url(#SVGID_00000160150469095321051420000013178019100211500197_);" points="282.864,17.065 
					266.641,45.162 250.419,17.065 				"/>
				<polygon style="opacity:0.3;fill:#FFFFFF;" points="266.641,17.065 266.641,45.162 250.419,17.065 				"/>
			</g>
			<g>
				
					<linearGradient id="SVGID_00000096760271674919380230000003035573337261112241_" gradientUnits="userSpaceOnUse" x1="181.104" y1="68.2891" x2="190.1954" y2="77.3805" gradientTransform="matrix(1 0 0 1 3.0779 48.181)">
					<stop  offset="0.3005" style="stop-color:#FFE375"/>
					<stop  offset="1" style="stop-color:#F4C700"/>
				</linearGradient>
				<polygon style="fill:url(#SVGID_00000096760271674919380230000003035573337261112241_);" points="195.383,118.58 
					188.728,130.107 182.072,118.58 				"/>
				<polygon style="opacity:0.15;fill:#FFFFFF;" points="188.728,118.58 188.728,130.107 182.072,118.58 				"/>
			</g>
			<g>
				
					<linearGradient id="SVGID_00000087403663031110219440000010680100538841008788_" gradientUnits="userSpaceOnUse" x1="157.839" y1="2791.0671" x2="176.6884" y2="2809.9167" gradientTransform="matrix(1 0 0 -1 3.0779 2846.5081)">
					<stop  offset="0" style="stop-color:#81B688"/>
					<stop  offset="0.858" style="stop-color:#5C8C77"/>
				</linearGradient>
				<polygon style="fill:url(#SVGID_00000087403663031110219440000010680100538841008788_);" points="184.14,51.067 170.342,27.167 
					156.543,51.067 				"/>
				<polygon style="opacity:0.3;fill:#FFFFFF;" points="170.342,51.067 170.342,27.167 156.543,51.067 				"/>
			</g>
			<g>
				
					<linearGradient id="SVGID_00000063635122433379276620000018283853688954057659_" gradientUnits="userSpaceOnUse" x1="15.3492" y1="2647.9216" x2="81.4437" y2="2581.8271" gradientTransform="matrix(1 0 0 -1 -29.3359 2630.9456)">
					<stop  offset="0" style="stop-color:#FFCFCB"/>
					<stop  offset="1" style="stop-color:#D7926D"/>
				</linearGradient>
				<polygon style="fill:url(#SVGID_00000063635122433379276620000018283853688954057659_);" points="67.445,-1.639 19.061,82.165 
					-29.324,-1.639 				"/>
				<polygon style="opacity:0.3;fill:#FFFFFF;" points="19.061,-1.639 19.061,82.165 -29.324,-1.639 				"/>
			</g>
			<g>
				
					<linearGradient id="SVGID_00000020399250096476005460000012601390744758896513_" gradientUnits="userSpaceOnUse" x1="366.6231" y1="-197.4815" x2="407.272" y2="-156.8326" gradientTransform="matrix(1 0 0 1 -10.4966 259.0084)">
					<stop  offset="0" style="stop-color:#FFCFCB"/>
					<stop  offset="1" style="stop-color:#D7A68C"/>
				</linearGradient>
				<polygon style="fill:url(#SVGID_00000020399250096476005460000012601390744758896513_);" points="406.208,92.743 
					376.451,41.202 346.694,92.743 				"/>
				<polygon style="opacity:0.3;fill:#FFFFFF;" points="376.451,92.743 376.451,41.202 346.694,92.743 				"/>
			</g>
			<g>
				<g>
					
						<linearGradient id="SVGID_00000183960535192492215890000015417887610750847631_" gradientUnits="userSpaceOnUse" x1="12.6362" y1="2864.4861" x2="22.5494" y2="2874.3994" gradientTransform="matrix(1 0 0 -1 0 3158.7146)">
						<stop  offset="0" style="stop-color:#81B688"/>
						<stop  offset="0.858" style="stop-color:#5C8C77"/>
					</linearGradient>
					<polygon style="fill:url(#SVGID_00000183960535192492215890000015417887610750847631_);" points="24.85,291.928 
						17.593,279.359 10.336,291.928 					"/>
					<polygon style="opacity:0.3;fill:#FFFFFF;" points="17.593,291.928 17.593,279.359 10.336,291.928 					"/>
				</g>
				<g>
					
						<linearGradient id="SVGID_00000005979468903687713020000016007557624134678935_" gradientUnits="userSpaceOnUse" x1="12.6362" y1="2893.9998" x2="22.5494" y2="2903.9131" gradientTransform="matrix(1 0 0 -1 0 3158.7146)">
						<stop  offset="0" style="stop-color:#81B688"/>
						<stop  offset="0.858" style="stop-color:#5C8C77"/>
					</linearGradient>
					<polygon style="fill:url(#SVGID_00000005979468903687713020000016007557624134678935_);" points="24.85,262.414 
						17.593,249.845 10.336,262.414 					"/>
					<polygon style="opacity:0.3;fill:#FFFFFF;" points="17.593,262.414 17.593,249.845 10.336,262.414 					"/>
				</g>
				<g>
					
						<linearGradient id="SVGID_00000096031715608949998620000006741497443844925837_" gradientUnits="userSpaceOnUse" x1="12.6362" y1="2923.5134" x2="22.5494" y2="2933.4268" gradientTransform="matrix(1 0 0 -1 0 3158.7146)">
						<stop  offset="0" style="stop-color:#81B688"/>
						<stop  offset="0.858" style="stop-color:#5C8C77"/>
					</linearGradient>
					<polygon style="fill:url(#SVGID_00000096031715608949998620000006741497443844925837_);" points="24.85,232.901 
						17.593,220.331 10.336,232.901 					"/>
					<polygon style="opacity:0.3;fill:#FFFFFF;" points="17.593,232.901 17.593,220.331 10.336,232.901 					"/>
				</g>
				<g>
					
						<linearGradient id="SVGID_00000008844939150921155820000005671821800412258969_" gradientUnits="userSpaceOnUse" x1="12.6362" y1="2953.0271" x2="22.5494" y2="2962.9402" gradientTransform="matrix(1 0 0 -1 0 3158.7146)">
						<stop  offset="0" style="stop-color:#81B688"/>
						<stop  offset="0.858" style="stop-color:#5C8C77"/>
					</linearGradient>
					<polygon style="fill:url(#SVGID_00000008844939150921155820000005671821800412258969_);" points="24.85,203.387 
						17.593,190.818 10.336,203.387 					"/>
					<polygon style="opacity:0.3;fill:#FFFFFF;" points="17.593,203.387 17.593,190.818 10.336,203.387 					"/>
				</g>
			</g>
		</g>
		<g style="clip-path:url(#SVGID_00000053547243228066503200000014245447354977002173_);">
			
				<linearGradient id="SVGID_00000155117516885380039810000014702629541716373654_" gradientUnits="userSpaceOnUse" x1="1164.6812" y1="2480.9919" x2="1340.0018" y2="2656.3127" gradientTransform="matrix(-1 0 0 -1 2278.6499 3134.9993)">
				<stop  offset="0.307" style="stop-color:#344967"/>
				<stop  offset="1" style="stop-color:#27374E"/>
			</linearGradient>
			<polygon style="opacity:0.3;fill:url(#SVGID_00000155117516885380039810000014702629541716373654_);" points="897.965,613.324 
				1026.308,391.026 1154.652,613.324 			"/>
			
				<linearGradient id="SVGID_00000098182903110020393080000001347924233904566718_" gradientUnits="userSpaceOnUse" x1="-798.1071" y1="412.4856" x2="-658.4184" y2="552.1742" gradientTransform="matrix(1 0 0 1 1955.7876 -357.8107)">
				<stop  offset="0.307" style="stop-color:#344967"/>
				<stop  offset="1" style="stop-color:#27374E"/>
			</linearGradient>
			<polygon style="opacity:0.3;fill:url(#SVGID_00000098182903110020393080000001347924233904566718_);" points="1329.784,87.09 
				1227.525,264.208 1125.266,87.09 			"/>
			<g style="opacity:0.3;">
				
					<linearGradient id="SVGID_00000086692576469429269650000017153854416802067357_" gradientUnits="userSpaceOnUse" x1="1340.5463" y1="-59.3629" x2="1448.1704" y2="48.2613" gradientTransform="matrix(-1 0 0 1 2314.4524 377.275)">
					<stop  offset="0.307" style="stop-color:#344967"/>
					<stop  offset="1" style="stop-color:#27374E"/>
				</linearGradient>
				<polygon style="fill:url(#SVGID_00000086692576469429269650000017153854416802067357_);" points="841.308,342.886 
					920.094,479.348 998.88,342.886 				"/>
			</g>
			
				<linearGradient id="SVGID_00000057121687150250525090000013492091530281660834_" gradientUnits="userSpaceOnUse" x1="1379.3909" y1="2656.2251" x2="1554.7115" y2="2831.5459" gradientTransform="matrix(-1 0 0 -1 2278.6499 3134.9993)">
				<stop  offset="0.307" style="stop-color:#344967"/>
				<stop  offset="1" style="stop-color:#27374E"/>
			</linearGradient>
			<polygon style="opacity:0.3;fill:url(#SVGID_00000057121687150250525090000013492091530281660834_);" points="683.255,438.091 
				811.599,215.793 939.942,438.091 			"/>
			<g>
				
					<linearGradient id="SVGID_00000108301717966515719530000018035001529000872862_" gradientUnits="userSpaceOnUse" x1="-548.6616" y1="182.17" x2="-247.8417" y2="482.9899" gradientTransform="matrix(1 0 0 1 1078.6499 204.1019)">
					<stop  offset="0" style="stop-color:#27374E"/>
					<stop  offset="0.693" style="stop-color:#344967"/>
				</linearGradient>
				
					<polygon style="fill:none;stroke:url(#SVGID_00000108301717966515719530000018035001529000872862_);stroke-width:2;stroke-miterlimit:10;" points="
					898.882,457.077 680.398,835.502 461.915,457.077 				"/>
			</g>
			<g>
				
					<linearGradient id="SVGID_00000083782521145960535020000011290918670221034427_" gradientUnits="userSpaceOnUse" x1="1350.6162" y1="2583.7803" x2="1561.9658" y2="2795.1299" gradientTransform="matrix(-1 0 0 -1 2278.6499 3134.9993)">
					<stop  offset="0.307" style="stop-color:#344967"/>
					<stop  offset="1" style="stop-color:#27374E"/>
				</linearGradient>
				<polygon style="fill:url(#SVGID_00000083782521145960535020000011290918670221034427_);" points="667.64,502.175 
					822.359,234.195 977.078,502.175 				"/>
				<polygon style="opacity:0.15;fill:#FFFFFF;" points="822.359,502.175 822.359,234.195 977.078,502.175 				"/>
			</g>
			<g>
				<polygon style="fill:none;stroke:#F4C700;stroke-width:2;stroke-miterlimit:10;" points="546.988,665.378 710.681,381.853 
					874.374,665.378 				"/>
			</g>
			<g style="opacity:0.7;">
				<polygon style="fill:#344967;" points="1112.539,298.836 1115.049,298.836 1152.446,234.063 1151.191,231.89 				"/>
				<polygon style="fill:#344967;" points="1144.876,298.836 1147.385,298.836 1168.614,262.067 1167.359,259.894 				"/>
				<polygon style="fill:#344967;" points="1123.318,298.836 1125.828,298.836 1157.835,243.398 1156.58,241.225 				"/>
				<polygon style="fill:#344967;" points="1189.843,298.836 1188.917,297.233 1187.991,298.836 				"/>
				<polygon style="fill:#344967;" points="1177.212,298.836 1179.722,298.836 1184.782,290.071 1183.527,287.898 				"/>
				<polygon style="fill:#344967;" points="1101.76,298.836 1104.27,298.836 1147.056,224.728 1145.802,222.555 				"/>
				<polygon style="fill:#344967;" points="1166.433,298.836 1168.943,298.836 1179.393,280.737 1178.138,278.563 				"/>
				<polygon style="fill:#344967;" points="1155.654,298.836 1158.164,298.836 1174.003,271.402 1172.749,269.229 				"/>
				<polygon style="fill:#344967;" points="1134.097,298.836 1136.606,298.836 1163.224,252.732 1161.97,250.559 				"/>
				<polygon style="fill:#344967;" points="1015.53,298.836 1018.039,298.836 1103.941,150.051 1102.686,147.877 				"/>
				<polygon style="fill:#344967;" points="1026.308,298.836 1028.818,298.836 1109.33,159.385 1108.076,157.212 				"/>
				<polygon style="fill:#344967;" points="1007.26,298.836 1098.552,140.716 1097.297,138.542 1004.751,298.836 				"/>
				<polygon style="fill:#344967;" points="1037.087,298.836 1039.597,298.836 1114.72,168.72 1113.465,166.547 				"/>
				<polygon style="fill:#344967;" points="1090.981,298.836 1093.491,298.836 1141.667,215.394 1140.412,213.22 				"/>
				<polygon style="fill:#344967;" points="1047.866,298.836 1050.376,298.836 1120.109,178.055 1118.854,175.882 				"/>
				<polygon style="fill:#344967;" points="1069.424,298.836 1071.933,298.836 1130.888,196.724 1129.633,194.551 				"/>
				<polygon style="fill:#344967;" points="1080.203,298.836 1082.712,298.836 1136.277,206.059 1135.023,203.886 				"/>
				<polygon style="fill:#344967;" points="1058.645,298.836 1061.155,298.836 1125.499,187.389 1124.244,185.216 				"/>
			</g>
			<g>
				<polygon style="fill:#344967;" points="579.883,439.467 577.828,439.467 547.203,492.511 548.23,494.291 				"/>
				<polygon style="fill:#344967;" points="553.402,439.467 551.347,439.467 533.963,469.578 534.99,471.358 				"/>
				<polygon style="fill:#344967;" points="571.056,439.467 569.001,439.467 542.789,484.867 543.817,486.647 				"/>
				<polygon style="fill:#344967;" points="516.578,439.467 517.336,440.78 518.094,439.467 				"/>
				<polygon style="fill:#344967;" points="526.921,439.467 524.866,439.467 520.722,446.645 521.75,448.425 				"/>
				<polygon style="fill:#344967;" points="588.71,439.467 586.655,439.467 551.616,500.155 552.644,501.935 				"/>
				<polygon style="fill:#344967;" points="535.748,439.467 533.693,439.467 525.136,454.289 526.163,456.069 				"/>
				<polygon style="fill:#344967;" points="544.575,439.467 542.52,439.467 529.549,461.934 530.577,463.714 				"/>
				<polygon style="fill:#344967;" points="562.229,439.467 560.174,439.467 538.376,477.222 539.404,479.002 				"/>
				<polygon style="fill:#344967;" points="659.326,439.467 657.271,439.467 586.924,561.31 587.952,563.09 				"/>
				<polygon style="fill:#344967;" points="650.499,439.467 648.444,439.467 582.511,553.666 583.538,555.446 				"/>
				<polygon style="fill:#344967;" points="666.098,439.467 591.338,568.955 592.365,570.735 668.153,439.467 				"/>
				<polygon style="fill:#344967;" points="641.672,439.467 639.617,439.467 578.097,546.022 579.125,547.802 				"/>
				<polygon style="fill:#344967;" points="597.537,439.467 595.482,439.467 556.03,507.8 557.057,509.58 				"/>
				<polygon style="fill:#344967;" points="632.845,439.467 630.79,439.467 573.684,538.377 574.711,540.157 				"/>
				<polygon style="fill:#344967;" points="615.191,439.467 613.136,439.467 564.857,523.089 565.884,524.868 				"/>
				<polygon style="fill:#344967;" points="606.364,439.467 604.309,439.467 560.443,515.444 561.471,517.224 				"/>
				<polygon style="fill:#344967;" points="624.018,439.467 621.963,439.467 569.27,530.733 570.298,532.513 				"/>
			</g>
			<g>
				
					<linearGradient id="SVGID_00000018954568756886100440000002375064222513087417_" gradientUnits="userSpaceOnUse" x1="1530.538" y1="2521.4888" x2="1708.8391" y2="2699.79" gradientTransform="matrix(-1 0 0 -1 2278.6499 3134.9993)">
					<stop  offset="0.3005" style="stop-color:#FFB654"/>
					<stop  offset="1" style="stop-color:#E78400"/>
				</linearGradient>
				<polygon style="fill:url(#SVGID_00000018954568756886100440000002375064222513087417_);" points="528.436,476.584 
					658.961,702.661 789.487,476.584 				"/>
				<polygon style="opacity:0.3;fill:#FFFFFF;" points="658.961,476.584 658.961,702.661 789.487,476.584 				"/>
			</g>
			
				<linearGradient id="SVGID_00000081616627025484024610000009189882466406512008_" gradientUnits="userSpaceOnUse" x1="1034.2382" y1="2593.7212" x2="1209.5588" y2="2769.042" gradientTransform="matrix(-1 0 0 -1 2278.6499 3134.9993)">
				<stop  offset="0.307" style="stop-color:#344967"/>
				<stop  offset="1" style="stop-color:#27374E"/>
			</linearGradient>
			<polygon style="fill:url(#SVGID_00000081616627025484024610000009189882466406512008_);" points="1028.408,500.595 
				1156.751,278.297 1285.095,500.595 			"/>
			<g>
				
					<linearGradient id="SVGID_00000114776440877201624940000007748481292812506549_" gradientUnits="userSpaceOnUse" x1="1030.9692" y1="2992.012" x2="1189.6135" y2="2833.3677" gradientTransform="matrix(-1 0 0 -1 2278.6499 3134.9993)">
					<stop  offset="0" style="stop-color:#81B688"/>
					<stop  offset="0.858" style="stop-color:#5C8C77"/>
				</linearGradient>
				
					<polygon style="fill:none;stroke:url(#SVGID_00000114776440877201624940000007748481292812506549_);stroke-width:2;stroke-miterlimit:10;" points="
					1282.762,180.801 1168.359,378.954 1053.955,180.801 				"/>
			</g>
			<g>
				
					<linearGradient id="SVGID_00000000210378878225528990000012709034459903614650_" gradientUnits="userSpaceOnUse" x1="962.7819" y1="2583.7803" x2="1174.1315" y2="2795.1299" gradientTransform="matrix(-1 0 0 -1 2278.6499 3134.9993)">
					<stop  offset="0" style="stop-color:#81B688"/>
					<stop  offset="0.858" style="stop-color:#4F806B"/>
				</linearGradient>
				<polygon style="fill:url(#SVGID_00000000210378878225528990000012709034459903614650_);" points="1055.475,502.175 
					1210.193,234.195 1364.912,502.175 				"/>
				<polygon style="opacity:0.3;fill:#FFFFFF;" points="1210.193,502.175 1210.193,234.195 1364.912,502.175 				"/>
			</g>
			<g>
				
					<linearGradient id="SVGID_00000101825302943094177590000005573268132061417875_" gradientUnits="userSpaceOnUse" x1="-356.0498" y1="31.2989" x2="-55.2299" y2="332.1188" gradientTransform="matrix(1 0 0 1 1078.6499 204.1019)">
					<stop  offset="0.307" style="stop-color:#344967"/>
					<stop  offset="1" style="stop-color:#27374E"/>
				</linearGradient>
				
					<polygon style="fill:none;stroke:url(#SVGID_00000101825302943094177590000005573268132061417875_);stroke-width:2;stroke-miterlimit:10;" points="
					1091.494,306.206 873.01,684.631 654.527,306.206 				"/>
			</g>
			<g>
				
					<linearGradient id="SVGID_00000016779659699303381650000003118798123919170217_" gradientUnits="userSpaceOnUse" x1="915.4824" y1="2547.114" x2="1223.3429" y2="2854.9746" gradientTransform="matrix(-1 0 0 -1 2278.6499 3134.9993)">
					<stop  offset="0.307" style="stop-color:#344967"/>
					<stop  offset="1" style="stop-color:#27374E"/>
				</linearGradient>
				
					<polygon style="fill:none;stroke:url(#SVGID_00000016779659699303381650000003118798123919170217_);stroke-width:2;stroke-miterlimit:10;" points="
					985.6,515.446 1209.237,128.094 1432.875,515.446 				"/>
			</g>
			<g>
				
					<linearGradient id="SVGID_00000145739989169824970150000015904547789602893725_" gradientUnits="userSpaceOnUse" x1="1226.6368" y1="2672.3193" x2="1410.0767" y2="2855.7593" gradientTransform="matrix(-1 0 0 -1 2278.6499 3134.9993)">
					<stop  offset="0" style="stop-color:#81B688"/>
					<stop  offset="0.858" style="stop-color:#5C8C77"/>
				</linearGradient>
				
					<polygon style="fill:none;stroke:url(#SVGID_00000145739989169824970150000015904547789602893725_);stroke-width:2;stroke-miterlimit:10;" points="
					827.738,419.112 960.293,189.52 1092.848,419.112 				"/>
			</g>
			<g>
				
					<linearGradient id="SVGID_00000150092970374603068410000010357638572182380697_" gradientUnits="userSpaceOnUse" x1="1238.1139" y1="2672.3193" x2="1421.5537" y2="2855.7593" gradientTransform="matrix(-1 0 0 -1 2278.6499 3134.9993)">
					<stop  offset="0" style="stop-color:#81B688"/>
					<stop  offset="0.858" style="stop-color:#5C8C77"/>
				</linearGradient>
				
					<polygon style="fill:none;stroke:url(#SVGID_00000150092970374603068410000010357638572182380697_);stroke-width:2;stroke-miterlimit:10;" points="
					816.261,419.112 948.816,189.52 1081.371,419.112 				"/>
			</g>
			<g>
				
					<linearGradient id="SVGID_00000161606849339983983850000017709513022402551963_" gradientUnits="userSpaceOnUse" x1="1350.5024" y1="-42.6387" x2="1458.1266" y2="64.9855" gradientTransform="matrix(-1 0 0 1 2314.4524 377.275)">
					<stop  offset="0" style="stop-color:#81B688"/>
					<stop  offset="0.858" style="stop-color:#4F806B"/>
				</linearGradient>
				<polygon style="fill:url(#SVGID_00000161606849339983983850000017709513022402551963_);" points="831.352,359.611 
					910.138,496.073 988.924,359.611 				"/>
				<polygon style="opacity:0.3;fill:#FFFFFF;" points="910.138,359.611 910.138,496.073 988.924,359.611 				"/>
			</g>
			<g>
				
					<linearGradient id="SVGID_00000142872457379002156020000000003654583861720224_" gradientUnits="userSpaceOnUse" x1="1368.2925" y1="2761.0779" x2="1436.2021" y2="2828.9875" gradientTransform="matrix(-1 0 0 -1 2278.6499 3134.9993)">
					<stop  offset="0" style="stop-color:#FFCFCB"/>
					<stop  offset="1" style="stop-color:#D7926D"/>
				</linearGradient>
				<polygon style="fill:url(#SVGID_00000142872457379002156020000000003654583861720224_);" points="826.689,321.77 
					876.403,407.876 926.116,321.77 				"/>
				<polygon style="opacity:0.3;fill:#FFFFFF;" points="876.403,321.77 876.403,407.876 926.116,321.77 				"/>
			</g>
			<g>
				
					<linearGradient id="SVGID_00000080172695282541491710000003755112805304176831_" gradientUnits="userSpaceOnUse" x1="1103.6858" y1="2529.1653" x2="1329.6609" y2="2755.1404" gradientTransform="matrix(-1 0 0 -1 2278.6499 3134.9993)">
					<stop  offset="0.3005" style="stop-color:#FFC475"/>
					<stop  offset="1" style="stop-color:#E78E00"/>
				</linearGradient>
				
					<polygon style="fill:none;stroke:url(#SVGID_00000080172695282541491710000003755112805304176831_);stroke-width:2;stroke-miterlimit:10;" points="
					898.283,552.396 1061.977,268.871 1225.67,552.396 				"/>
			</g>
			<g>
				
					<linearGradient id="SVGID_00000108302573097020129410000006659571302307128708_" gradientUnits="userSpaceOnUse" x1="1127.7444" y1="2761.114" x2="1225.3182" y2="2858.688" gradientTransform="matrix(-1 0 0 -1 2278.6499 3134.9993)">
					<stop  offset="0.3005" style="stop-color:#FFB654"/>
					<stop  offset="1" style="stop-color:#E78400"/>
				</linearGradient>
				<polygon style="fill:url(#SVGID_00000108302573097020129410000006659571302307128708_);" points="1030.69,351.243 
					1102.119,227.524 1173.548,351.243 				"/>
				<polygon style="opacity:0.3;fill:#FFFFFF;" points="1102.119,351.243 1102.119,227.524 1173.548,351.243 				"/>
			</g>
			<g>
				
					<linearGradient id="SVGID_00000132076408653118790680000013605005648733911696_" gradientUnits="userSpaceOnUse" x1="1115.9178" y1="2854.8191" x2="1160.5577" y2="2899.459" gradientTransform="matrix(-1 0 0 -1 2278.6499 3134.9993)">
					<stop  offset="0.3005" style="stop-color:#FFE375"/>
					<stop  offset="1" style="stop-color:#F4C700"/>
				</linearGradient>
				<polygon style="fill:url(#SVGID_00000132076408653118790680000013605005648733911696_);" points="1107.733,269.821 
					1140.412,213.22 1173.091,269.821 				"/>
				<polygon style="opacity:0.3;fill:#FFFFFF;" points="1140.412,269.821 1140.412,213.22 1173.091,269.821 				"/>
			</g>
			<g>
				
					<linearGradient id="SVGID_00000085209439432852335620000002515340047202783360_" gradientUnits="userSpaceOnUse" x1="1417.8169" y1="2650.822" x2="1447.2266" y2="2680.2314" gradientTransform="matrix(-1 0 0 -1 2278.6499 3134.9993)">
					<stop  offset="0.3005" style="stop-color:#FFE375"/>
					<stop  offset="1" style="stop-color:#F4C700"/>
				</linearGradient>
				<polygon style="fill:url(#SVGID_00000085209439432852335620000002515340047202783360_);" points="824.599,477.353 
					846.128,440.063 867.657,477.353 				"/>
				<polygon style="opacity:0.3;fill:#FFFFFF;" points="846.128,477.353 846.128,440.063 867.657,477.353 				"/>
			</g>
			<g>
				
					<linearGradient id="SVGID_00000129202336439147280280000002877580615988884141_" gradientUnits="userSpaceOnUse" x1="1320.0082" y1="2741.3909" x2="1332.0737" y2="2753.4565" gradientTransform="matrix(-1 0 0 -1 2275.572 3086.8181)">
					<stop  offset="0.3005" style="stop-color:#FFE375"/>
					<stop  offset="1" style="stop-color:#F4C700"/>
				</linearGradient>
				<polygon style="fill:url(#SVGID_00000129202336439147280280000002877580615988884141_);" points="940.698,342.627 
					949.531,327.329 958.364,342.627 				"/>
				<polygon style="opacity:0.15;fill:#FFFFFF;" points="949.531,342.627 949.531,327.329 958.364,342.627 				"/>
			</g>
			<g>
				
					<linearGradient id="SVGID_00000025409947524699868460000008901778692625232288_" gradientUnits="userSpaceOnUse" x1="1289.132" y1="137.9308" x2="1314.1479" y2="162.9468" gradientTransform="matrix(-1 0 0 1 2275.572 288.4911)">
					<stop  offset="0" style="stop-color:#81B688"/>
					<stop  offset="0.858" style="stop-color:#5C8C77"/>
				</linearGradient>
				<polygon style="fill:url(#SVGID_00000025409947524699868460000008901778692625232288_);" points="955.619,432.227 
					973.932,463.946 992.245,432.227 				"/>
				<polygon style="opacity:0.3;fill:#FFFFFF;" points="973.932,432.227 973.932,463.946 992.245,432.227 				"/>
			</g>
			<g>
				
					<linearGradient id="SVGID_00000150781399782050344320000002920088162533582470_" gradientUnits="userSpaceOnUse" x1="1089.4235" y1="18.476" x2="1177.1404" y2="-69.2409" gradientTransform="matrix(-1 0 0 1 2307.9858 504.0538)">
					<stop  offset="0" style="stop-color:#FFCFCB"/>
					<stop  offset="1" style="stop-color:#D7926D"/>
				</linearGradient>
				<polygon style="fill:url(#SVGID_00000150781399782050344320000002920088162533582470_);" points="1110.491,502.175 
					1174.704,390.954 1238.917,502.175 				"/>
				<polygon style="opacity:0.3;fill:#FFFFFF;" points="1174.704,502.175 1174.704,390.954 1238.917,502.175 				"/>
			</g>
			<g>
				
					<linearGradient id="SVGID_00000165235960096887575660000015817052970654668469_" gradientUnits="userSpaceOnUse" x1="1561.7778" y1="2457.646" x2="1615.7247" y2="2511.5928" gradientTransform="matrix(-1 0 0 -1 2289.1465 2875.9907)">
					<stop  offset="0" style="stop-color:#FFCFCB"/>
					<stop  offset="1" style="stop-color:#D7A68C"/>
				</linearGradient>
				<polygon style="fill:url(#SVGID_00000165235960096887575660000015817052970654668469_);" points="660.903,376.916 
					700.395,445.318 739.887,376.916 				"/>
				<polygon style="opacity:0.3;fill:#FFFFFF;" points="700.395,376.916 700.395,445.318 739.887,376.916 				"/>
			</g>
			<g>
				<g>
					
						<linearGradient id="SVGID_00000170964365447889309720000011713122972660630419_" gradientUnits="userSpaceOnUse" x1="1095.4199" y1="133.2318" x2="1108.5763" y2="146.388" gradientTransform="matrix(-1 0 0 1 2278.6499 -23.7154)">
						<stop  offset="0" style="stop-color:#81B688"/>
						<stop  offset="0.858" style="stop-color:#5C8C77"/>
					</linearGradient>
					<polygon style="fill:url(#SVGID_00000170964365447889309720000011713122972660630419_);" points="1167.021,112.569 
						1176.652,129.251 1186.283,112.569 					"/>
					<polygon style="opacity:0.3;fill:#FFFFFF;" points="1176.652,112.569 1176.652,129.251 1186.283,112.569 					"/>
				</g>
				<g>
					
						<linearGradient id="SVGID_00000085964212747929924290000010872702231456994985_" gradientUnits="userSpaceOnUse" x1="1095.4199" y1="172.4005" x2="1108.5763" y2="185.5569" gradientTransform="matrix(-1 0 0 1 2278.6499 -23.7154)">
						<stop  offset="0" style="stop-color:#81B688"/>
						<stop  offset="0.858" style="stop-color:#5C8C77"/>
					</linearGradient>
					<polygon style="fill:url(#SVGID_00000085964212747929924290000010872702231456994985_);" points="1167.021,151.738 
						1176.652,168.42 1186.283,151.738 					"/>
					<polygon style="opacity:0.3;fill:#FFFFFF;" points="1176.652,151.738 1176.652,168.42 1186.283,151.738 					"/>
				</g>
				<g>
					
						<linearGradient id="SVGID_00000108988073832802354630000007239813294992015248_" gradientUnits="userSpaceOnUse" x1="1095.4199" y1="211.5694" x2="1108.5763" y2="224.7258" gradientTransform="matrix(-1 0 0 1 2278.6499 -23.7154)">
						<stop  offset="0" style="stop-color:#81B688"/>
						<stop  offset="0.858" style="stop-color:#5C8C77"/>
					</linearGradient>
					<polygon style="fill:url(#SVGID_00000108988073832802354630000007239813294992015248_);" points="1167.021,190.907 
						1176.652,207.589 1186.283,190.907 					"/>
					<polygon style="opacity:0.3;fill:#FFFFFF;" points="1176.652,190.907 1176.652,207.589 1186.283,190.907 					"/>
				</g>
				<g>
					
						<linearGradient id="SVGID_00000112610322043598939040000012822428473639616393_" gradientUnits="userSpaceOnUse" x1="1095.4199" y1="250.7383" x2="1108.5763" y2="263.8946" gradientTransform="matrix(-1 0 0 1 2278.6499 -23.7154)">
						<stop  offset="0" style="stop-color:#81B688"/>
						<stop  offset="0.858" style="stop-color:#5C8C77"/>
					</linearGradient>
					<polygon style="fill:url(#SVGID_00000112610322043598939040000012822428473639616393_);" points="1167.021,230.076 
						1176.652,246.757 1186.283,230.076 					"/>
					<polygon style="opacity:0.3;fill:#FFFFFF;" points="1176.652,230.076 1176.652,246.757 1186.283,230.076 					"/>
				</g>
			</g>
		</g>
	</g>
</g>
</svg>
